<svg width="24px" height="24px" viewBox="0 0 24 24" xmlns="http://www.w3.org/2000/svg">
<path fill-rule="evenodd" clip-rule="evenodd" d="M18.8483 4.55211C18.2221 4.36107 17.5606 4.71376 17.3685 5.32769C17.2882 5.58406 17.0197 5.73121 16.7605 5.66093L13.8098 4.86109L12.83 7.86516C14.0578 8.10785 16.0928 8.63848 17.6592 9.47434C18.07 9.26593 18.6187 9.15468 19.1412 9.17238C19.8153 9.19521 20.6036 9.44079 21.0519 10.163C21.5802 11.014 21.5975 11.7944 21.3311 12.4277C21.1377 12.8874 20.8101 13.2342 20.4969 13.4652C20.6068 16.1526 17.9485 19.0764 12.6604 19.4719C10.8783 19.6052 8.47176 19.273 6.56405 18.2788C5.60559 17.7793 4.74908 17.1 4.17206 16.2037C3.63313 15.3665 3.35379 14.3635 3.4417 13.1954C3.13983 12.9309 2.81429 12.5286 2.63576 12.0319C2.39269 11.3556 2.43576 10.5315 3.10158 9.73335C3.74963 8.95647 4.99067 8.88704 6.07709 9.46181C6.47197 9.20553 7.02884 8.89229 7.66911 8.61597C8.47306 8.26901 9.44064 7.96621 10.4039 7.92614C10.6798 7.91467 10.9128 8.12903 10.9243 8.40493C10.9357 8.68084 10.7214 8.9138 10.4455 8.92528C9.64999 8.95836 8.80838 9.21344 8.06535 9.53411C7.32474 9.85374 6.71406 10.2246 6.38889 10.4591C6.2206 10.5805 5.99481 10.5854 5.82147 10.4713C4.90854 9.8704 4.12395 10.0689 3.86948 10.3739C3.4438 10.8842 3.44681 11.3319 3.57682 11.6936C3.72058 12.0936 4.03494 12.4154 4.24333 12.554C4.40105 12.6588 4.48598 12.8438 4.4627 13.0318C4.3307 14.0975 4.56065 14.9598 5.0129 15.6624C5.47062 16.3734 6.17442 16.9481 7.0262 17.392C8.73898 18.2846 10.9528 18.5968 12.5859 18.4747C17.8133 18.0837 19.7191 15.2133 19.4782 13.2692C19.453 13.0659 19.5544 12.8679 19.734 12.7693C19.9724 12.6386 20.2657 12.3812 20.4093 12.0399C20.5397 11.7299 20.5742 11.2894 20.2023 10.6904C19.998 10.3612 19.6011 10.1885 19.1073 10.1718C18.6016 10.1547 18.1554 10.309 17.9837 10.4453C17.823 10.5728 17.6006 10.5893 17.4229 10.4867C15.7164 9.5017 13.1664 8.91647 12.0996 8.75017C11.9547 8.72759 11.8271 8.6426 11.7504 8.51766C11.6738 8.39273 11.6558 8.24045 11.7012 8.10109L13.0065 4.0991C13.0891 3.84591 13.3556 3.70189 13.6127 3.77156L16.6102 4.58409C17.1081 3.72934 18.1496 3.29347 19.1401 3.59563C20.2889 3.94611 20.9415 5.15503 20.5826 6.3016C20.2247 7.44538 19.0007 8.07733 17.8544 7.72764C17.3504 7.57389 16.9414 7.25466 16.672 6.84788C16.5195 6.61764 16.5826 6.3074 16.8128 6.15493C17.043 6.00247 17.3533 6.06551 17.5058 6.29575C17.6505 6.51439 17.8706 6.68707 18.1462 6.77116C18.7764 6.96339 19.4374 6.61293 19.6283 6.00291C19.8183 5.39569 19.4758 4.74356 18.8483 4.55211Z" fill="darksalmon">
</svg>
