<?xml version="1.0" encoding="iso-8859-1"?>
<!-- Generator: Adobe Illustrator 17.1.0, SVG Export Plug-In . SVG Version: 6.00 Build 0)  -->
<!DOCTYPE svg PUBLIC "-//W3C//DTD SVG 1.1//EN" "http://www.w3.org/Graphics/SVG/1.1/DTD/svg11.dtd">
<svg version="1.1" id="Capa_1" xmlns="http://www.w3.org/2000/svg" xmlns:xlink="http://www.w3.org/1999/xlink" x="0px" y="0px"
	 viewBox="0 0 224.667 224.667" style="enable-background:new 0 0 224.667 224.667;" xml:space="preserve" fill="#ebebeb">
<g>
	<path d="M185.876,112.333c3.346-3.268,6.446-6.539,9.251-9.791c20.433-23.684,19.158-38.292,14.49-46.376
		c-3.311-5.734-11.018-12.569-28.931-12.569c-9.156,0-19.906,1.758-31.583,5.038c-1.157-4.529-2.439-8.847-3.851-12.899
		C134.957,6.2,121.669,0,112.334,0S89.71,6.2,79.416,35.736c-1.412,4.053-2.695,8.371-3.852,12.899
		c-11.677-3.28-22.428-5.038-31.584-5.038c-17.914,0-25.62,6.835-28.93,12.569c-4.667,8.084-5.942,22.692,14.49,46.376
		c2.805,3.251,5.905,6.522,9.251,9.791c-3.346,3.268-6.446,6.539-9.251,9.791C9.108,145.808,10.382,160.416,15.05,168.5
		c3.31,5.733,11.017,12.568,28.931,12.569c0.001,0,0.001,0,0.003,0c9.155,0,19.904-1.758,31.581-5.038
		c1.157,4.529,2.439,8.847,3.852,12.899c10.294,29.536,23.583,35.736,32.918,35.736s22.623-6.2,32.918-35.736
		c1.412-4.052,2.695-8.371,3.851-12.899c11.676,3.279,22.426,5.038,31.582,5.038c0.002,0,0.002,0,0.004,0
		c17.909,0,25.617-6.835,28.928-12.569c4.668-8.084,5.942-22.691-14.49-46.376C192.322,118.873,189.221,115.602,185.876,112.333z
		 M180.686,58.598c8.271,0,14.08,1.848,15.94,5.069c2.262,3.917,0.252,13.883-12.856,29.077c-2.719,3.152-5.755,6.33-9.043,9.51
		c-5.958-5.019-12.449-9.968-19.37-14.76c-0.69-8.388-1.73-16.481-3.097-24.149C162.944,60.269,172.667,58.598,180.686,58.598z
		 M126.852,137.48c-4.826,2.786-9.681,5.404-14.518,7.84c-4.837-2.436-9.693-5.054-14.519-7.84c-4.94-2.852-9.624-5.743-14.06-8.647
		c-0.297-5.293-0.458-10.795-0.458-16.5c0-5.701,0.161-11.2,0.458-16.491c4.528-2.964,9.219-5.861,14.061-8.656
		c4.826-2.786,9.681-5.404,14.519-7.84c4.837,2.436,9.693,5.054,14.519,7.84c4.842,2.795,9.533,5.692,14.061,8.656
		c0.297,5.291,0.458,10.79,0.458,16.491c0,5.701-0.161,11.2-0.458,16.49C136.385,131.788,131.694,134.685,126.852,137.48z
		 M139.193,147.616c-0.397,3.075-0.841,6.051-1.328,8.928c-2.762-1.032-5.561-2.14-8.388-3.321c1.626-0.9,3.251-1.814,4.875-2.751
		C135.981,149.53,137.594,148.578,139.193,147.616z M95.191,153.222c-2.827,1.182-5.626,2.29-8.388,3.322
		c-0.487-2.877-0.931-5.854-1.328-8.928c1.599,0.962,3.212,1.915,4.841,2.855C91.939,151.408,93.565,152.322,95.191,153.222z
		 M68.349,117.953c-2.471-1.886-4.834-3.764-7.087-5.629c2.281-1.883,4.646-3.756,7.087-5.615c-0.034,1.868-0.052,3.743-0.052,5.626
		C68.297,114.215,68.315,116.087,68.349,117.953z M85.475,77.051c0.397-3.074,0.841-6.051,1.328-8.927
		c2.762,1.032,5.561,2.14,8.388,3.321c-1.626,0.9-3.251,1.814-4.875,2.751C88.686,75.137,87.074,76.089,85.475,77.051z
		 M129.477,71.445c2.827-1.181,5.626-2.289,8.388-3.321c0.487,2.876,0.931,5.853,1.328,8.928c-1.599-0.962-3.212-1.915-4.841-2.855
		C132.728,73.259,131.103,72.345,129.477,71.445z M156.318,106.708c2.445,1.862,4.814,3.739,7.099,5.625
		c-2.285,1.887-4.654,3.763-7.099,5.625c0.034-1.867,0.052-3.742,0.052-5.625C156.371,110.451,156.352,108.576,156.318,106.708z
		 M112.334,15c7.187,0,16.342,13.991,22.432,38.261c-7.289,2.64-14.81,5.78-22.432,9.383c-7.622-3.603-15.143-6.743-22.432-9.383
		C95.992,28.991,105.147,15,112.334,15z M28.04,63.667c1.86-3.222,7.67-5.069,15.94-5.069c8.019,0,17.742,1.671,28.426,4.747
		c-1.367,7.667-2.407,15.761-3.097,24.149c-6.91,4.785-13.392,9.726-19.342,14.738C31.988,84.818,24.447,69.891,28.04,63.667z
		 M43.981,166.069c-8.271,0-14.081-1.848-15.941-5.069c-2.262-3.917-0.251-13.883,12.857-29.077c2.719-3.151,5.754-6.33,9.042-9.51
		c5.958,5.019,12.449,9.968,19.37,14.76c0.69,8.388,1.73,16.482,3.097,24.149C61.723,164.399,52,166.07,43.981,166.069z
		 M112.334,209.667c-7.187,0-16.342-13.991-22.432-38.261c7.289-2.64,14.81-5.78,22.432-9.383
		c7.622,3.603,15.143,6.743,22.432,9.383C128.676,195.676,119.521,209.667,112.334,209.667z M196.627,161
		c-1.86,3.222-7.669,5.069-15.938,5.069c0,0-0.002,0-0.003,0c-8.02,0-17.742-1.672-28.425-4.747
		c1.367-7.667,2.407-15.76,3.097-24.148c6.921-4.793,13.412-9.741,19.369-14.76c3.288,3.179,6.323,6.358,9.042,9.509
		C196.879,147.117,198.888,157.083,196.627,161z"/>
	<path d="M112.334,91.659c-11.4,0-20.675,9.274-20.675,20.675s9.275,20.675,20.675,20.675c11.4,0,20.675-9.274,20.675-20.675
		S123.734,91.659,112.334,91.659z"/>
</g>
<g>
</g>
<g>
</g>
<g>
</g>
<g>
</g>
<g>
</g>
<g>
</g>
<g>
</g>
<g>
</g>
<g>
</g>
<g>
</g>
<g>
</g>
<g>
</g>
<g>
</g>
<g>
</g>
<g>
</g>
</svg>
